<svg xmlns:xlink="http://www.w3.org/1999/xlink" xmlns="http://www.w3.org/2000/svg" version="1.1" viewBox="0.0 0.0 500.0 500.0" fill="none" stroke="none" stroke-linecap="square" stroke-miterlimit="10"><clipPath id="g2f1efb5674a_0_44.0"><path d="m0 0l500.0 0l0 500.0l-500.0 0l0 -500.0z" clip-rule="nonzero"/></clipPath><g clip-path="url(#g2f1efb5674a_0_44.0)"><path fill="#000000" fill-opacity="0.0" d="m0 0l500.0 0l0 500.0l-500.0 0z" fill-rule="evenodd"/><path fill="#ff9e67" d="m104.01575 419.983l0 0c-59.10452 -59.104523 -76.791756 -147.97797 -44.80918 -225.15366c31.982574 -77.175705 107.33181 -127.44382 190.89117 -127.350204c83.55939 0.09361267 158.86093 50.53051 190.77042 127.77779c31.909485 77.247284 14.138153 166.081 -45.022247 225.05301l-53.72986 -53.901276l0 0c37.351562 -37.232513 48.563232 -93.32706 28.40387 -142.11093c-20.159363 -48.78386 -67.71677 -80.642715 -120.48279 -80.71181c-52.76602 -0.0690918 -100.34152 31.665176 -120.528656 80.396225c-20.18715 48.73105 -9.007431 104.85489 28.322891 142.18521z" fill-rule="evenodd"/><path fill="#ff9e67" d="m157.15826 273.95877l0 0c0 -51.27115 41.563477 -92.83464 92.83464 -92.83464l0 0c24.621292 0 48.234146 9.780762 65.644 27.190643c17.409882 17.409866 27.190643 41.02272 27.190643 65.644l0 0c0 51.27118 -41.563477 92.834656 -92.83464 92.834656l0 0c-51.271164 0 -92.83464 -41.563477 -92.83464 -92.834656z" fill-rule="evenodd"/><path fill="#ff9e67" d="m212.12764 291.83273l0 0c0 -3.3569336E-4 2.89917E-4 -6.1035156E-4 6.2561035E-4 -6.1035156E-4l75.71591 6.1035156E-4c1.5258789E-4 0 3.3569336E-4 6.1035156E-5 4.5776367E-4 1.8310547E-4c1.2207031E-4 1.2207031E-4 1.8310547E-4 2.746582E-4 1.8310547E-4 4.5776367E-4l-6.4086914E-4 128.59778c0 3.6621094E-4 -2.746582E-4 6.4086914E-4 -6.4086914E-4 6.4086914E-4l-75.7159 -6.4086914E-4l0 0c-3.5095215E-4 0 -6.2561035E-4 -2.746582E-4 -6.2561035E-4 -6.1035156E-4z" fill-rule="evenodd"/></g></svg>