<svg version="1.1" viewBox="0.0 0.0 1000.0 500.0" fill="none" stroke="none" stroke-linecap="square" stroke-miterlimit="10" xmlns:xlink="http://www.w3.org/1999/xlink" xmlns="http://www.w3.org/2000/svg"><clipPath id="p.0"><path d="m0 0l1000.0 0l0 500.0l-1000.0 0l0 -500.0z" clip-rule="nonzero"/></clipPath><g clip-path="url(#p.0)"><path fill="#000000" fill-opacity="0.0" d="m0 0l1000.0 0l0 500.0l-1000.0 0z" fill-rule="evenodd"/><path fill="#000000" d="m201.42258 186.22047l127.74802 0l-21.512756 21.480942l-79.88539 0l0 79.76721l-26.349869 26.310913z" fill-rule="evenodd"/><path fill="#000000" d="m240.50919 249.98163l0 0c0 -13.689713 11.097702 -24.7874 24.787415 -24.7874l0 0c6.574005 0 12.878784 2.6115265 17.527313 7.2600555c4.6485596 4.6485443 7.260071 10.953308 7.260071 17.527344l0 0c0 13.689697 -11.097687 24.787415 -24.787384 24.787415l0 0c-13.689713 0 -24.787415 -11.097717 -24.787415 -24.787415z" fill-rule="evenodd"/><path fill="#000000" fill-opacity="0.0" d="m350.0105 166.53543l448.56696 0l0 166.92914l-448.56696 0z" fill-rule="evenodd"/><path fill="#000000" d="m367.1355 312.4l0 -126.0625l88.640625 0l0 27.578125l-54.421875 0l0 21.671875l49.0 0l0 27.578125l-49.0 0l0 49.234375l-34.21875 0zm101.19 0l0 -126.0625l54.40625 0q14.03125 0 24.5625 5.109375q10.53125 5.109375 16.375 14.71875q5.84375 9.59375 5.84375 23.015625q0 13.546875 -6.0 22.84375q-6.0 9.28125 -16.8125 14.03125q-10.796875 4.734375 -25.1875 4.734375l-32.5 0l0 -26.59375l25.59375 0q6.03125 0 10.3125 -1.5q4.28125 -1.515625 6.578125 -4.828125q2.3125 -3.328125 2.3125 -8.6875q0 -5.421875 -2.3125 -8.828125q-2.296875 -3.421875 -6.578125 -5.046875q-4.28125 -1.640625 -10.3125 -1.640625l-12.0625 0l0 98.734375l-34.21875 0zm73.859375 -57.859375l31.515625 57.859375l-37.171875 0l-30.78125 -57.859375l36.4375 0zm76.07544 -68.203125l0 126.0625l-34.21875 0l0 -126.0625l34.21875 0zm16.253174 0l42.59375 0l29.296875 71.40625l1.484375 0l29.296875 -71.40625l42.59375 0l0 126.0625l-33.484375 0l0 -72.875l-0.984375 0l-28.078125 71.890625l-20.1875 0l-28.0625 -72.390625l-0.984375 0l0 73.375l-33.484375 0l0 -126.0625z" fill-rule="nonzero"/></g></svg>