<svg version="1.1" viewBox="0.0 0.0 1000.0 300.0" fill="none" stroke="none" stroke-linecap="square" stroke-miterlimit="10" xmlns:xlink="http://www.w3.org/1999/xlink" xmlns="http://www.w3.org/2000/svg"><clipPath id="p.0"><path d="m0 0l1000.0 0l0 300.0l-1000.0 0l0 -300.0z" clip-rule="nonzero"/></clipPath><g clip-path="url(#p.0)"><path fill="#000000" fill-opacity="0.0" d="m0 0l1000.0 0l0 300.0l-1000.0 0z" fill-rule="evenodd"/><path fill="#212121" d="m54.133858 223.35432l84.83465 -146.70865l84.83464 146.70865z" fill-rule="evenodd"/><path fill="#212121" d="m301.4672 76.64567l146.70865 0l0 146.70865l-146.70865 0z" fill-rule="evenodd"/><path fill="#212121" d="m525.8399 150.0l0 0c0 -40.51248 32.841858 -73.35433 73.35431 -73.35433l0 0c19.454773 0 38.112732 7.7283783 51.869385 21.484985c13.756592 13.756607 21.484985 32.414574 21.484985 51.869347l0 0c0 40.51248 -32.841858 73.354324 -73.35437 73.354324l0 0c-40.51245 0 -73.35431 -32.841843 -73.35431 -73.354324z" fill-rule="evenodd"/><path fill="#212121" d="m750.2126 223.35432l36.677185 -146.70865l122.299194 0l36.677185 146.70865z" fill-rule="evenodd"/></g></svg>