<svg version="1.1" viewBox="0.0 0.0 500.0 500.0" fill="none" stroke="none" stroke-linecap="square" stroke-miterlimit="10" xmlns:xlink="http://www.w3.org/1999/xlink" xmlns="http://www.w3.org/2000/svg"><clipPath id="g2b8ea1e46fe_0_50.0"><path d="m0 0l500.0 0l0 500.0l-500.0 0l0 -500.0z" clip-rule="nonzero"/></clipPath><g clip-path="url(#g2b8ea1e46fe_0_50.0)"><path fill="#000000" fill-opacity="0.0" d="m0 0l500.0 0l0 500.0l-500.0 0z" fill-rule="evenodd"/><path fill="#000000" d="m28.574802 24.299213l452.063 0l-76.12741 76.01602l-282.68954 0l0 282.27594l-93.24602 93.10959z" fill-rule="evenodd"/><path fill="#000000" d="m166.89818 249.9553l0 0c0 -48.4532 39.279083 -87.732285 87.732285 -87.732285l0 0c23.268036 0 45.5831 9.243195 62.036102 25.696182c16.452972 16.453003 25.696167 38.76805 25.696167 62.036102l0 0c0 48.4532 -39.279083 87.732285 -87.73227 87.732285l0 0c-48.4532 0 -87.732285 -39.279083 -87.732285 -87.732285z" fill-rule="evenodd"/></g></svg>